<?xml version="1.0" encoding="UTF-8"?>
<svg version="1.1" xmlns="http://www.w3.org/2000/svg" width="1000" height="1000">
<path d="M0 0 C23.67973786 -0.04685617 47.35946871 -0.08205529 71.0392437 -0.10362434 C82.03578116 -0.11390832 93.0322897 -0.12791321 104.02880859 -0.15087891 C113.62065372 -0.17090135 123.21247789 -0.18373732 132.80434334 -0.18817699 C137.87652504 -0.19076946 142.94864681 -0.19680195 148.02080917 -0.21146011 C152.80929348 -0.22518442 157.59769403 -0.22919313 162.38619614 -0.22621536 C164.12987729 -0.22675897 165.87356169 -0.23064696 167.61722565 -0.23841095 C196.02761055 -0.35855002 227.094909 2.75317959 248.96875 22.87890625 C269.50240573 44.32078137 275.73763575 71.06418206 275.25 99.9453125 C274.30510517 129.85123388 262.35997375 156.05192657 241 177 C237.51136566 179.99326934 233.88155636 182.54168097 230 185 C229.43216797 185.3619043 228.86433594 185.72380859 228.27929688 186.09667969 C209.3893728 197.94581388 188.64158541 202.59687129 167 207 C167.58587891 207.56702637 168.17175781 208.13405273 168.77539062 208.71826172 C173.42427666 213.28038634 177.724024 217.81735016 181.5 223.125 C181.96156494 223.76695312 182.42312988 224.40890625 182.89868164 225.0703125 C192.69445935 238.88932593 200.38551068 253.90249776 208 269 C208.56992676 270.12905762 209.13985352 271.25811523 209.72705078 272.42138672 C220.80966248 294.5226544 230.57459618 317.14871152 240 340 C240.30524597 340.73637695 240.61049194 341.47275391 240.92498779 342.23144531 C241.78812577 344.3185245 242.64353795 346.40857932 243.49609375 348.5 C243.98134521 349.6859375 244.46659668 350.871875 244.96655273 352.09375 C246 355 246 355 246 358 C219.6 358 193.2 358 166 358 C163.999375 352.4725 161.99875 346.945 159.9375 341.25 C153.39284817 323.37306042 146.30466058 305.77465197 138.82275391 288.27148438 C137.31790653 284.75098182 135.82932292 281.22388115 134.34521484 277.69459534 C120.22725912 241.38031026 120.22725912 241.38031026 92.5625 215.6875 C78.88383609 210.20666549 63.86319847 210.76635016 49.375 210.4375 C47.58983538 210.39422426 45.80467899 210.35060737 44.01953125 210.30664062 C39.67977252 210.2004911 35.33992822 210.09896742 31 210 C30.88789468 210.78004048 30.77578936 211.56008097 30.6602869 212.36375904 C29.45073259 220.52683316 27.92951957 228.58163047 26.21850586 236.65307617 C25.94368202 237.96201538 25.66916014 239.27101802 25.39491272 240.58007812 C24.65856179 244.09034969 23.91785426 247.59968797 23.1761291 251.10882735 C22.39763349 254.79492856 21.62274311 258.48178789 20.8473053 262.16853333 C19.54773662 268.34440674 18.24532086 274.51967443 16.94116211 280.69458008 C15.43316069 287.83480742 13.92969645 294.97597884 12.42860883 302.11766261 C10.98100401 309.00439651 9.53027721 315.89046908 8.07809639 322.7762394 C7.46107317 325.70222287 6.84514256 328.62843319 6.23008537 331.55483055 C5.37396859 335.62732406 4.5132859 339.69883917 3.65209961 343.77026367 C3.3970163 344.98629776 3.14193298 346.20233185 2.87911987 347.45521545 C2.64503922 348.55826019 2.41095856 349.66130493 2.16978455 350.79777527 C1.96682235 351.75983478 1.76386015 352.72189428 1.55474758 353.71310711 C1 356 1 356 0 358 C-24.75 358 -49.5 358 -75 358 C-67.63592203 321.96302271 -67.63592203 321.96302271 -64.9453125 308.91015625 C-64.75862125 308.00446459 -64.57193001 307.09877293 -64.37958145 306.16563606 C-57.35285423 272.09611501 -50.17809542 238.0573106 -43.02909851 204.01329041 C-42.88811983 203.34193882 -42.74714115 202.67058724 -42.60189039 201.97889167 C-41.88079883 198.54503591 -41.15966694 195.11118862 -40.43847084 191.67735481 C-35.82103712 169.69187092 -31.21494651 147.70402694 -26.61473465 125.7149334 C-25.54096096 120.58230538 -24.46695988 115.44972496 -23.39291382 110.31715393 C-22.6831631 106.92538523 -21.97341742 103.53361548 -21.26367188 100.1418457 C-21.08886457 99.30647534 -20.91405726 98.47110497 -20.73395276 97.61042035 C-18.64791778 87.64152519 -16.5626566 77.67246881 -14.47852045 67.7031765 C-13.16844212 61.43690266 -11.85738338 55.17083442 -10.54559797 48.90491772 C-9.78531394 45.27313762 -9.0254821 41.64126444 -8.26686287 38.0091362 C-7.43725042 34.03711825 -6.60554948 30.06554035 -5.77368164 26.09399414 C-5.53538132 24.9513444 -5.29708099 23.80869467 -5.05155945 22.63141918 C-3.46418471 15.06437898 -1.76468174 7.52762382 0 0 Z M62 60 C59.51681155 71.77733756 57.03902071 83.55579644 54.56812286 95.33571911 C53.42062924 100.80551178 52.2712769 106.27490009 51.11767578 111.7434082 C50.00455227 117.02037542 48.89631263 122.29834669 47.79145813 127.57705116 C47.36898234 129.5912463 46.94474517 131.60507281 46.51872253 133.61852074 C45.92253433 136.43767868 45.33261013 139.25807972 44.74414062 142.07885742 C44.56647659 142.91179825 44.38881256 143.74473907 44.20576477 144.60292053 C43.40654711 148.46511364 42.777219 152.03026337 43 156 C117.35115916 161.14164768 117.35115916 161.14164768 182.7890625 134.20703125 C183.51867187 133.47871094 184.24828125 132.75039063 185 132 C185.84691406 131.17048828 185.84691406 131.17048828 186.7109375 130.32421875 C197.51351787 118.807182 200.66075176 105.48428272 200.30859375 90.29296875 C199.84092639 81.2947383 195.43358415 75.07468586 189 69 C174.8612914 56.51513117 147.73168179 59.85256512 130.06640625 59.90234375 C128.0924432 59.90421359 126.11847968 59.90563481 124.14451599 59.90663147 C119.00066805 59.91041216 113.85684928 59.92020334 108.7130127 59.93133545 C103.44344477 59.94164632 98.17387203 59.94614962 92.90429688 59.95117188 C82.60285191 59.96183053 72.3014284 59.97885209 62 60 Z " fill="#1B2639" transform="translate(240,217)"/>
<path d="M0 0 C18.48165585 -0.04690168 36.96329607 -0.0820773 55.44499874 -0.10362434 C64.0280501 -0.1138988 72.6110643 -0.12788506 81.1940918 -0.15087891 C88.68264482 -0.17093095 96.17117091 -0.18374421 103.65975004 -0.18817699 C107.61799272 -0.19076455 111.57615837 -0.19676464 115.53437614 -0.21146011 C153.11434102 -0.34553142 153.11434102 -0.34553142 171.625 4.25 C172.50615479 4.46615967 173.38730957 4.68231934 174.29516602 4.9050293 C204.32474813 12.56326894 229.41376508 31.43068122 245.23779297 58.08496094 C272.23243278 104.55131178 272.01292029 163.17684617 259.22998047 214.06542969 C246.61676425 261.40945771 216.72923626 308.48979562 173.85229492 333.74267578 C135.86772233 355.45227182 95.72999032 358.34348616 52.95628524 358.20278788 C48.44403309 358.19012292 43.93177707 358.18909779 39.41950989 358.18673706 C30.90972714 358.18056792 22.39999695 358.16422022 13.89023715 358.14403808 C4.18740289 358.12153528 -5.51543413 358.11064982 -15.21828806 358.10064721 C-35.1455545 358.07984889 -55.07277391 358.04476364 -75 358 C-71.59632955 339.94806124 -67.9505525 321.95706801 -64.15234375 303.984375 C-63.58536182 301.29402389 -63.01912094 298.60351697 -62.45288086 295.91300964 C-61.24577181 290.17894164 -60.03720908 284.44518183 -58.8276062 278.7116394 C-55.91254149 264.89359382 -53.0047951 251.0740069 -50.09674263 237.25448418 C-49.42591665 234.06662379 -48.75498573 230.87878552 -48.08396721 227.69096565 C-43.13225357 204.16611147 -38.19779317 180.63769842 -33.28125 157.10546875 C-33.12543245 156.35968677 -32.96961489 155.61390479 -32.80907559 154.84552336 C-29.80246672 140.45456058 -26.79838594 126.06307025 -23.79505497 111.67142308 C-20.20051322 94.44681851 -16.6037665 77.22267735 -13 60 C-12.86168164 59.33892903 -12.72336329 58.67785807 -12.58085346 57.99675465 C-10.7433133 49.21501481 -8.90313735 40.43383316 -7.05929756 31.65341377 C-6.52641181 29.11466447 -5.9941188 26.57579068 -5.46244621 24.03678703 C-4.73260523 20.55224124 -4.00052566 17.06817337 -3.26782227 13.58422852 C-2.94351951 12.03255446 -2.94351951 12.03255446 -2.61266518 10.44953346 C-2.41371336 9.50592146 -2.21476154 8.56230946 -2.00978088 7.59010315 C-1.83784493 6.77098229 -1.66590899 5.95186144 -1.48876286 5.10791874 C-1 3 -1 3 0 0 Z M62 60 C57.08781296 82.21662802 52.35434843 104.46669235 47.72103739 126.74299073 C46.81626387 131.09117172 45.90958885 135.43895626 45.00314331 139.78678894 C43.28809179 148.01449025 41.57459705 156.24251489 39.86173522 164.47067231 C37.56540246 175.50132294 35.26688826 186.53151894 32.96836805 197.56171393 C32.40612936 200.25979931 31.84389978 202.95788659 31.28167725 205.65597534 C31.0060069 206.97890038 31.0060069 206.97890038 30.72476745 208.32855117 C29.45039931 214.44451103 28.17676277 220.56062297 26.90338135 226.67678833 C23.92058403 241.00198254 20.93619406 255.32677954 17.92480469 269.64599609 C17.70293676 270.7017858 17.48106884 271.75757551 17.25247765 272.84535885 C16.28017682 277.47142738 15.3060345 282.09708868 14.32766724 286.72187805 C14.00727516 288.24385136 13.68694708 289.76583814 13.36669922 291.2878418 C12.96461746 293.18967476 12.96461746 293.18967476 12.55441284 295.12992859 C11.93677861 297.84009483 11.93677861 297.84009483 12 300 C19.65988201 300.05165505 27.31971755 300.08612306 34.97973633 300.10986328 C37.57350339 300.11978331 40.16725971 300.13332351 42.76098633 300.15087891 C81.11669547 300.40356135 116.60342307 300.15390896 145.5 271.9375 C179.16509317 237.92048963 192.24397799 190.471021 192.18359375 143.72607422 C191.91786241 118.25323438 187.08060385 94.80332762 168.9140625 75.8203125 C153.49794014 61.0720366 133.6803927 59.82731754 113.46484375 59.90234375 C111.97555082 59.90421232 110.48625727 59.90563415 108.9969635 59.90663147 C105.10574603 59.91042211 101.21456678 59.9202223 97.32336426 59.93133545 C92.63924194 59.9434382 87.95510673 59.94796827 83.27097321 59.95378876 C76.18063542 59.96343638 69.09032045 59.98186688 62 60 Z " fill="#253145" transform="translate(591,217)"/>
<path d="M0 0 C9.9 0 19.8 0 30 0 C31.1248024 8.9984192 31.1248024 8.9984192 31.28125 12.83276367 C31.31798828 13.69113327 31.35472656 14.54950287 31.39257812 15.43388367 C31.42802734 16.33613174 31.46347656 17.23837982 31.5 18.16796875 C31.54060547 19.12463943 31.58121094 20.08131012 31.62304688 21.06697083 C31.75180313 24.10702678 31.87629216 27.14723475 32 30.1875 C32.12406524 33.20989407 32.24916613 36.23223171 32.37695312 39.25447083 C32.45602292 41.12668156 32.53302081 42.99898158 32.60742188 44.87138367 C32.90402055 51.92848891 33.42501343 58.96047045 34 66 C37.43429019 59.01249498 40.86622867 52.02383841 44.29663086 45.03442383 C45.46065734 42.66299099 46.62551995 40.29197431 47.79077148 37.92114258 C53.97744256 25.33281957 60.13542862 12.7420368 66 0 C76.23 0 86.46 0 97 0 C95.87496145 10.12534699 95.87496145 10.12534699 95.16516113 13.53027344 C95.0053627 14.30688828 94.84556427 15.08350311 94.68092346 15.88365173 C94.50842575 16.70064041 94.33592804 17.51762909 94.15820312 18.359375 C93.88241676 19.6902993 93.88241676 19.6902993 93.60105896 21.04811096 C92.99863955 23.94962973 92.39015566 26.84983607 91.78125 29.75 C91.35883168 31.77492982 90.93667588 33.79991442 90.51477051 35.82495117 C89.6331632 40.05167876 88.74857456 44.27776811 87.86181641 48.50341797 C86.72307192 53.93093243 85.59155855 59.35992469 84.46219635 64.78939819 C83.59339493 68.9625213 82.72096482 73.13487916 81.84739685 77.30700684 C81.42844961 79.30994866 81.01061218 81.31312294 80.59388733 83.31652832 C80.0135301 86.10373109 79.42834312 88.88987533 78.84179688 91.67578125 C78.66929916 92.50896378 78.49680145 93.3421463 78.31907654 94.20057678 C77.11429243 99.88570757 77.11429243 99.88570757 76 101 C74.5112814 101.08669432 73.018555 101.10703494 71.52734375 101.09765625 C70.62822266 101.09443359 69.72910156 101.09121094 68.80273438 101.08789062 C67.38444336 101.07532227 67.38444336 101.07532227 65.9375 101.0625 C64.5134082 101.05573242 64.5134082 101.05573242 63.06054688 101.04882812 C60.70696935 101.0370011 58.35351523 101.02052025 56 101 C56.20044922 100.15475266 56.40089844 99.30950531 56.60742188 98.43864441 C58.49443032 90.47893068 60.37823256 82.51846654 62.25842285 74.5571394 C63.22519562 70.46402133 64.19321252 66.37120581 65.1640625 62.27905273 C66.10066312 58.33105859 67.03400889 54.38230804 67.96508789 50.43300819 C68.32116502 48.92523014 68.67842082 47.41772995 69.03686523 45.91051292 C69.538102 43.80198316 70.03516656 41.6925109 70.53125 39.58276367 C70.81548828 38.38141281 71.09972656 37.18006195 71.39257812 35.94230652 C72.10109034 33.01105116 72.10109034 33.01105116 72 30 C71.50298584 31.04937744 71.00597168 32.09875488 70.49389648 33.17993164 C59.76106885 55.8349266 48.96136656 78.45464815 38 101 C31.07 101 24.14 101 17 101 C15.58654105 76.67046186 14.2666463 52.33770392 13 28 C8.38 52.09 3.76 76.18 -1 101 C-7.6 101 -14.2 101 -21 101 C-19.4252271 89.88769537 -17.2126525 78.96677918 -14.90234375 67.98828125 C-14.5038122 66.08355762 -14.10550578 64.17878688 -13.70741272 62.27397156 C-12.8783513 58.31084453 -12.04689209 54.34823075 -11.21362305 50.38598633 C-10.14449759 45.30146627 -9.08101882 40.21578451 -8.01923275 35.12972736 C-7.20033371 31.20978192 -6.37873403 27.29040647 -5.55627632 23.37120628 C-5.16276415 21.49462451 -4.77004421 19.61787642 -4.37812614 17.74096107 C-3.83284331 15.13182241 -3.28399044 12.52346061 -2.73413086 9.9152832 C-2.57255493 9.13873383 -2.410979 8.36218445 -2.24450684 7.56210327 C-1.11432554 2.22865108 -1.11432554 2.22865108 0 0 Z " fill="#63738B" transform="translate(303,674)"/>
<path d="M0 0 C6.93 0 13.86 0 21 0 C19.30800929 10.78498312 17.11792615 21.44631527 14.90234375 32.1328125 C14.50391306 34.06140703 14.1056048 35.99002685 13.70741272 37.91867065 C12.87768049 41.93470572 12.0462465 45.95038371 11.21362305 49.96582031 C10.1452785 55.11892131 9.0816142 60.27297581 8.01923275 65.42730904 C7.20025601 69.39784705 6.37866072 73.36783971 5.55627632 77.33767319 C5.16269244 79.23936211 4.76997252 81.14123005 4.37812614 83.04327774 C3.83281946 85.68843509 3.28395569 88.33282944 2.73413086 90.97705078 C2.49176697 92.15825752 2.49176697 92.15825752 2.24450684 93.36332703 C1.11423429 98.77153142 1.11423429 98.77153142 0 101 C-6.6 101 -13.2 101 -20 101 C-20 99.68 -20 98.36 -20 97 C-20.60328125 97.34933594 -21.2065625 97.69867187 -21.828125 98.05859375 C-22.62734375 98.51363281 -23.4265625 98.96867188 -24.25 99.4375 C-25.03890625 99.88996094 -25.8278125 100.34242188 -26.640625 100.80859375 C-33.54748967 104.2963317 -43.07434455 104.27084674 -50.375 101.9375 C-56.27805027 99.24750241 -60.51474217 94.60770747 -63.4375 88.875 C-67.73532885 76.72572624 -66.24588127 60.53772047 -61 49 C-55.86566232 39.04707269 -50.07713248 30.8098668 -39.125 27.1875 C-30.91199875 25.0163894 -22.75139666 25.23097227 -15 29 C-12.57166781 30.89860686 -10.27167243 32.91756563 -8 35 C-7.04104695 30.85430976 -6.0829508 26.70842193 -5.125 22.5625 C-4.85558594 21.39783203 -4.58617187 20.23316406 -4.30859375 19.03320312 C-4.04433594 17.88916016 -3.78007813 16.74511719 -3.5078125 15.56640625 C-3.26691895 14.52427979 -3.02602539 13.48215332 -2.77783203 12.40844727 C-1.83481397 8.27615752 -0.91946536 4.13759411 0 0 Z M-39.57421875 49.875 C-45.18158556 58.23228095 -46.50490957 68.14062921 -45 78 C-42.91107427 81.8251162 -40.8335809 84.83859058 -37 87 C-32.26506191 87.95174635 -27.45670823 87.76090825 -23.25 85.25 C-17.89981232 80.85067506 -14.17432161 72.77192131 -13 66 C-12.18012025 55.95561629 -12.18012025 55.95561629 -16 47 C-19.14602836 43.63448129 -21.44494511 41.69167209 -26.0625 41.5 C-32.33992065 42.29713278 -35.69793392 45.06720486 -39.57421875 49.875 Z " fill="#63738B" transform="translate(711,674)"/>
<path d="M0 0 C3.64000801 3.4184423 6.8068086 6.79642806 7.25366211 11.89331055 C7.53403097 24.27481249 5.18851989 35.75618612 2.5625 47.8125 C2.1359375 49.83368262 1.71079808 51.85516613 1.28710938 53.87695312 C0.51304641 57.54456939 -0.26451567 61.21129768 -1.06030273 64.87426758 C-1.21796616 65.60100174 -1.37562958 66.3277359 -1.53807068 67.07649231 C-2 69 -2 69 -3 72 C-9.93 72 -16.86 72 -24 72 C-23.69707031 70.43636719 -23.39414062 68.87273437 -23.08203125 67.26171875 C-21.95708575 61.44557859 -20.84374627 55.62725669 -19.73193359 49.80859375 C-19.00316811 46.01648518 -18.2617869 42.2269881 -17.51953125 38.4375 C-17.05424276 36.02091892 -16.58938564 33.60425474 -16.125 31.1875 C-15.8978833 30.04434326 -15.6707666 28.90118652 -15.43676758 27.72338867 C-15.2333374 26.6532251 -15.02990723 25.58306152 -14.8203125 24.48046875 C-14.54598389 23.07124146 -14.54598389 23.07124146 -14.26611328 21.63354492 C-13.98454722 18.84707414 -14.30990094 16.70079954 -15 14 C-21.21310727 12.50425195 -24.7675734 13.30086228 -30.5078125 15.9921875 C-37.89261525 21.94169943 -40.23230918 29.91538561 -42.125 38.875 C-42.37016357 39.96039062 -42.61532715 41.04578125 -42.86791992 42.1640625 C-43.60120889 45.43828303 -44.30612379 48.71722011 -45 52 C-45.31396729 53.48161621 -45.31396729 53.48161621 -45.63427734 54.99316406 C-46.73448364 60.20518744 -46.73448364 60.20518744 -47.79541016 65.42529297 C-48.89704892 70.89704892 -48.89704892 70.89704892 -50 72 C-51.4887186 72.08669432 -52.981445 72.10703494 -54.47265625 72.09765625 C-55.37177734 72.09443359 -56.27089844 72.09121094 -57.19726562 72.08789062 C-58.61555664 72.07532227 -58.61555664 72.07532227 -60.0625 72.0625 C-61.01189453 72.05798828 -61.96128906 72.05347656 -62.93945312 72.04882812 C-65.29303369 72.03700109 -67.64647581 72.01968094 -70 72 C-69.28949875 63.9970534 -67.72800949 56.23359968 -66.09375 48.375 C-65.80586284 46.97783445 -65.5182288 45.58061672 -65.23083496 44.18334961 C-64.63163657 41.27483573 -64.029535 38.36694278 -63.42529297 35.45947266 C-62.64980111 31.72688659 -61.88150066 27.99286228 -61.11528778 24.25836182 C-60.52442649 21.38229214 -59.92993353 18.50698275 -59.33430481 15.63189697 C-59.04931947 14.254158 -58.76545192 12.87618733 -58.48271179 11.49798584 C-58.08916689 9.58253139 -57.69023089 7.66818693 -57.29101562 5.75390625 C-57.06530884 4.66408447 -56.83960205 3.5742627 -56.60705566 2.45141602 C-56 0 -56 0 -55 -1 C-53.58429877 -1.08651611 -52.164405 -1.10704904 -50.74609375 -1.09765625 C-49.46508789 -1.09282227 -49.46508789 -1.09282227 -48.15820312 -1.08789062 C-47.26037109 -1.07951172 -46.36253906 -1.07113281 -45.4375 -1.0625 C-44.53580078 -1.05798828 -43.63410156 -1.05347656 -42.70507812 -1.04882812 C-40.46998686 -1.03700225 -38.23502563 -1.0205222 -36 -1 C-36 1.31 -36 3.62 -36 6 C-35.46632813 5.60167969 -34.93265625 5.20335937 -34.3828125 4.79296875 C-24.45680659 -2.26514272 -11.32864519 -6.85430634 0 0 Z " fill="#63738B" transform="translate(588,703)"/>
<path d="M0 0 C0.83265381 0.00523682 1.66530762 0.01047363 2.52319336 0.01586914 C3.42231445 0.0190918 4.32143555 0.02231445 5.24780273 0.02563477 C6.66609375 0.03820312 6.66609375 0.03820312 8.11303711 0.05102539 C9.06243164 0.05553711 10.01182617 0.06004883 10.98999023 0.06469727 C13.3435708 0.0765243 15.69701292 0.09384445 18.05053711 0.11352539 C17.3500553 8.03853162 15.79206387 15.70942299 14.14428711 23.48461914 C13.85635743 24.85695897 13.56872421 26.22936103 13.28137207 27.6018219 C12.68219582 30.45907599 12.08013134 33.31570055 11.47583008 36.171875 C10.70095155 39.83496506 9.93239244 43.4993464 9.16582489 47.16418362 C8.57431427 49.9895541 7.98003101 52.81433552 7.38484192 55.63893318 C7.10022803 56.99079967 6.81635962 58.34282333 6.5332489 59.69500542 C6.13876413 61.57654525 5.74025717 63.45724044 5.34155273 65.33789062 C5.11584595 66.4077269 4.89013916 67.47756317 4.65759277 68.57981873 C4.05053711 71.11352539 4.05053711 71.11352539 3.05053711 73.11352539 C-3.87946289 73.11352539 -10.80946289 73.11352539 -17.94946289 73.11352539 C-16.01498554 63.74232723 -14.07732987 54.37180197 -12.13400364 45.00243473 C-11.23185681 40.65226367 -10.33112973 36.30180852 -9.43359375 31.95068359 C-8.56805485 27.75493562 -7.69885671 23.55996127 -6.82707024 19.36550713 C-6.49441872 17.7617358 -6.16310716 16.15768597 -5.83313179 14.55336189 C-5.37223457 12.31364033 -4.90666674 10.07493896 -4.43994141 7.83642578 C-4.17568863 6.55957413 -3.91143585 5.28272247 -3.63917542 3.96717834 C-2.71859372 0.1583151 -2.71859372 0.1583151 0 0 Z " fill="#63738B" transform="translate(455.949462890625,701.886474609375)"/>
<path d="M0 0 C6.93 0 13.86 0 21 0 C20.04300753 6.69894728 19.14449232 12.56652303 17 19 C10.4 19 3.8 19 -3 19 C-2.43756457 12.34451406 -1.47467997 6.63605988 0 0 Z " fill="#63738B" transform="translate(459,674)"/>
</svg>
